<?xml version="1.0" encoding="UTF-8"?>
<!DOCTYPE svg PUBLIC "-//W3C//DTD SVG 1.1//EN" "http://www.w3.org/Graphics/SVG/1.1/DTD/svg11.dtd">
<!-- Creator: CorelDRAW 2021 (64 Bit) -->
<svg xmlns="http://www.w3.org/2000/svg" xml:space="preserve" width="7.5378mm" height="6.0074mm" version="1.1" style="shape-rendering:geometricPrecision; text-rendering:geometricPrecision; image-rendering:optimizeQuality; fill-rule:evenodd; clip-rule:evenodd"
viewBox="0 0 106.23 84.66"
 xmlns:xlink="http://www.w3.org/1999/xlink"
 xmlns:xodm="http://www.corel.com/coreldraw/odm/2003">
 <defs>
  <style type="text/css">
   <![CDATA[
    .fil0 {fill:#00CCFF;fill-rule:nonzero}
   ]]>
  </style>
 </defs>
 <g id="Camada_x0020_1">
  <metadata id="CorelCorpID_0Corel-Layer"/>
  <g id="_2570735187632">
   <path class="fil0" d="M61.71 32.02c0,-4.18 -2.95,-6.48 -8.13,-6.48l-9.53 0 0 13.46 8.03 0c6.2,-0.02 9.62,-2.51 9.62,-6.98zm34.68 -2.42c-1.8,-5.84 -2.06,-13 -1.85,-18.54 0.21,-5.77 -4.29,-11.06 -10.34,-11.06l-62.15 0c-6.07,0 -10.55,5.31 -10.34,11.06 0.19,5.54 -0.06,12.7 -1.85,18.54 -1.81,5.86 -4.86,9.56 -9.87,10.04l0 5.39c4.99,0.47 8.05,4.18 9.87,10.04 1.8,5.84 2.06,13 1.85,18.54 -0.21,5.77 4.29,11.06 10.34,11.06l62.13 0c6.07,0 10.55,-5.31 10.34,-11.06 -0.19,-5.54 0.06,-12.7 1.85,-18.54 1.82,-5.86 4.86,-9.56 9.85,-10.04l0 -5.39c-4.97,-0.47 -8.03,-4.18 -9.83,-10.04zm-40.98 35.25l-18.5 0 0 -45.04 18.41 0c8.18,0 13.55,4.42 13.55,11.23 0,4.78 -3.61,9.05 -8.22,9.79l0 0.25c6.27,0.68 10.49,5.03 10.49,11.02 0,7.96 -5.92,12.76 -15.73,12.76zm-1.89 -20.55l-9.47 0 0 14.82 9.89 0c6.46,0 9.89,-2.59 9.89,-7.47 0,-4.86 -3.52,-7.35 -10.3,-7.35z"/>
  </g>
 </g>
</svg>
