<?xml version="1.0" encoding="UTF-8"?>
<!DOCTYPE svg PUBLIC "-//W3C//DTD SVG 1.1//EN" "http://www.w3.org/Graphics/SVG/1.1/DTD/svg11.dtd">
<!-- Creator: CorelDRAW 2021 (64 Bit) -->
<svg xmlns="http://www.w3.org/2000/svg" xml:space="preserve" width="7.141mm" height="8.3312mm" version="1.1" style="shape-rendering:geometricPrecision; text-rendering:geometricPrecision; image-rendering:optimizeQuality; fill-rule:evenodd; clip-rule:evenodd"
viewBox="0 0 137.78 160.74"
 xmlns:xlink="http://www.w3.org/1999/xlink"
 xmlns:xodm="http://www.corel.com/coreldraw/odm/2003">
 <defs>
  <style type="text/css">
   <![CDATA[
    .fil0 {fill:#99CC33;fill-rule:nonzero}
   ]]>
  </style>
 </defs>
 <g id="Camada_x0020_1">
  <metadata id="CorelCorpID_0Corel-Layer"/>
  <g id="_2570791899328">
   <path class="fil0" d="M-0 0l12.52 142.01 56.37 18.73 56.37 -18.73 12.52 -142.01 -137.78 0zm112.34 28.7l-1.72 16.97 -41.37 17.69 -0.11 0.04 40.01 0 -4.59 52.6 -35.23 10.3 -35.45 -10.48 -2.3 -26.52 17.55 0 1.15 13.74 18.87 4.77 19.63 -5.53 1.33 -22.1 -59.67 -0.18 0 -0.04 -0.07 0.04 -1.29 -16.61 40.22 -16.76 2.33 -0.97 -44.1 0 -2.08 -16.97 86.9 0z"/>
  </g>
 </g>
</svg>
