<?xml version="1.0" encoding="UTF-8"?>
<!DOCTYPE svg PUBLIC "-//W3C//DTD SVG 1.1//EN" "http://www.w3.org/Graphics/SVG/1.1/DTD/svg11.dtd">
<!-- Creator: CorelDRAW 2021 (64 Bit) -->
<svg xmlns="http://www.w3.org/2000/svg" xml:space="preserve" width="2.902mm" height="2.8295mm" version="1.1" style="shape-rendering:geometricPrecision; text-rendering:geometricPrecision; image-rendering:optimizeQuality; fill-rule:evenodd; clip-rule:evenodd"
viewBox="0 0 12 11.7"
 xmlns:xlink="http://www.w3.org/1999/xlink"
 xmlns:xodm="http://www.corel.com/coreldraw/odm/2003">
 <defs>
  <style type="text/css">
   <![CDATA[
    .fil0 {fill:url(#id0);fill-rule:nonzero}
   ]]>
  </style>
  <linearGradient id="id0" gradientUnits="userSpaceOnUse" x1="-0" y1="5.85" x2="12" y2="5.85">
   <stop offset="0" style="stop-opacity:1; stop-color:#CC33FF"/>
   <stop offset="1" style="stop-opacity:1; stop-color:#CC6699"/>
  </linearGradient>
 </defs>
 <g id="Camada_x0020_1">
  <metadata id="CorelCorpID_0Corel-Layer"/>
  <g id="_2572358264320">
   <path class="fil0" d="M4.01 9.42c0,0.05 -0.06,0.09 -0.13,0.09 -0.08,0.01 -0.14,-0.03 -0.14,-0.09 0,-0.05 0.06,-0.09 0.13,-0.09 0.07,-0.01 0.14,0.03 0.14,0.09zm-0.75 -0.11c-0.02,0.05 0.03,0.1 0.1,0.12 0.06,0.02 0.14,0 0.15,-0.05 0.01,-0.05 -0.03,-0.1 -0.1,-0.13 -0.06,-0.02 -0.13,0.01 -0.15,0.06zm1.07 -0.04c-0.07,0.02 -0.12,0.06 -0.11,0.12 0.01,0.05 0.07,0.08 0.14,0.06 0.07,-0.02 0.12,-0.06 0.11,-0.11 -0.01,-0.05 -0.07,-0.08 -0.14,-0.07l0 0zm1.59 -9.27c-3.35,0 -5.92,2.55 -5.92,5.9 0,2.68 1.69,4.98 4.1,5.78 0.31,0.06 0.42,-0.14 0.42,-0.29 0,-0.15 -0.01,-0.98 -0.01,-1.49 0,0 -1.69,0.36 -2.05,-0.72 0,0 -0.28,-0.7 -0.67,-0.89 0,0 -0.55,-0.38 0.04,-0.37 0,0 0.6,0.05 0.93,0.62 0.53,0.93 1.42,0.67 1.76,0.51 0.06,-0.39 0.21,-0.66 0.39,-0.82 -1.35,-0.15 -2.72,-0.35 -2.72,-2.67 0,-0.67 0.18,-1 0.57,-1.42 -0.06,-0.16 -0.27,-0.81 0.06,-1.64 0.51,-0.16 1.67,0.65 1.67,0.65 0.48,-0.14 1,-0.21 1.52,-0.21 0.52,0 1.04,0.07 1.52,0.21 0,0 1.16,-0.81 1.67,-0.65 0.33,0.84 0.13,1.48 0.06,1.64 0.39,0.43 0.62,0.76 0.62,1.42 0,2.33 -1.42,2.52 -2.78,2.67 0.22,0.19 0.41,0.55 0.41,1.12 0,0.81 -0.01,1.82 -0.01,2.02 0,0.16 0.11,0.35 0.42,0.29 2.42,-0.8 4.06,-3.1 4.06,-5.78 0,-3.35 -2.72,-5.9 -6.08,-5.9zm-3.57 8.34c-0.03,0.02 -0.02,0.08 0.02,0.13 0.04,0.04 0.09,0.06 0.13,0.02 0.03,-0.02 0.02,-0.08 -0.02,-0.13 -0.04,-0.04 -0.09,-0.06 -0.13,-0.02zm-0.26 -0.2c-0.02,0.03 0.01,0.07 0.06,0.09 0.04,0.02 0.09,0.02 0.1,-0.02 0.02,-0.03 -0.01,-0.07 -0.06,-0.09 -0.05,-0.01 -0.09,-0.01 -0.1,0.02zm0.78 0.86c-0.04,0.03 -0.02,0.1 0.03,0.15 0.06,0.06 0.13,0.06 0.16,0.02 0.03,-0.03 0.02,-0.1 -0.03,-0.15 -0.05,-0.06 -0.13,-0.06 -0.16,-0.02zm-0.28 -0.36c-0.04,0.02 -0.04,0.09 0,0.14 0.04,0.06 0.1,0.08 0.14,0.06 0.04,-0.03 0.04,-0.09 0,-0.15 -0.03,-0.06 -0.1,-0.08 -0.14,-0.05z"/>
  </g>
 </g>
</svg>
