<?xml version="1.0" encoding="UTF-8"?>
<!DOCTYPE svg PUBLIC "-//W3C//DTD SVG 1.1//EN" "http://www.w3.org/Graphics/SVG/1.1/DTD/svg11.dtd">
<!-- Creator: CorelDRAW 2021 (64 Bit) -->
<svg xmlns="http://www.w3.org/2000/svg" xml:space="preserve" width="7.3929mm" height="7.3929mm" version="1.1" style="shape-rendering:geometricPrecision; text-rendering:geometricPrecision; image-rendering:optimizeQuality; fill-rule:evenodd; clip-rule:evenodd"
viewBox="0 0 573.61 573.61"
 xmlns:xlink="http://www.w3.org/1999/xlink"
 xmlns:xodm="http://www.corel.com/coreldraw/odm/2003">
 <defs>
  <style type="text/css">
   <![CDATA[
    .fil0 {fill:#15AABF;fill-rule:nonzero}
   ]]>
  </style>
 </defs>
 <g id="Camada_x0020_1">
  <metadata id="CorelCorpID_0Corel-Layer"/>
  <g id="_2570730693312">
   <path class="fil0" d="M-0 0l0 573.61 573.61 0 0 -573.61 -573.61 0zm312.16 447.37c0,55.83 -32.78,81.31 -80.54,81.31 -43.15,0 -68.12,-22.28 -80.92,-49.29l43.92 -26.5c8.45,14.98 16.14,27.65 34.7,27.65 17.67,0 28.94,-6.91 28.94,-33.93l0 -183.22 53.9 0 0 183.99zm127.53 81.31c-50.06,0 -82.45,-23.81 -98.21,-55.06l43.92 -25.35c11.52,18.82 26.64,32.77 53.14,32.77 22.28,0 36.61,-11.13 36.61,-26.63 0,-18.44 -14.59,-24.97 -39.31,-35.85l-13.45 -5.76c-38.92,-16.52 -64.66,-37.39 -64.66,-81.31 0,-40.46 30.86,-71.19 78.87,-71.19 34.32,0 58.9,11.91 76.57,43.15l-41.99 26.89c-9.23,-16.52 -19.21,-23.05 -34.71,-23.05 -15.74,0 -25.73,9.99 -25.73,23.05 0,16.13 9.99,22.66 33.16,32.77l13.44 5.76c45.84,19.59 71.58,39.69 71.58,84.76 0,48.4 -38.16,75.03 -89.24,75.03l0 0z"/>
  </g>
 </g>
</svg>
