<?xml version="1.0" encoding="UTF-8"?>
<!DOCTYPE svg PUBLIC "-//W3C//DTD SVG 1.1//EN" "http://www.w3.org/Graphics/SVG/1.1/DTD/svg11.dtd">
<!-- Creator: CorelDRAW 2021 (64 Bit) -->
<svg xmlns="http://www.w3.org/2000/svg" xml:space="preserve" width="2.7266mm" height="2.7266mm" version="1.1" style="shape-rendering:geometricPrecision; text-rendering:geometricPrecision; image-rendering:optimizeQuality; fill-rule:evenodd; clip-rule:evenodd"
viewBox="0 0 10.62 10.62"
 xmlns:xlink="http://www.w3.org/1999/xlink"
 xmlns:xodm="http://www.corel.com/coreldraw/odm/2003">
 <defs>
  <style type="text/css">
   <![CDATA[
    .fil0 {fill:url(#id0);fill-rule:nonzero}
   ]]>
  </style>
  <linearGradient id="id0" gradientUnits="userSpaceOnUse" x1="-0" y1="5.31" x2="10.62" y2="5.31">
   <stop offset="0" style="stop-opacity:1; stop-color:#CC33FF"/>
   <stop offset="1" style="stop-opacity:1; stop-color:#CC6699"/>
  </linearGradient>
 </defs>
 <g id="Camada_x0020_1">
  <metadata id="CorelCorpID_0Corel-Layer"/>
  <g id="_2572652087120">
   <path class="fil0" d="M9.86 0l-9.1 0c-0.42,0 -0.76,0.34 -0.76,0.77l0 9.08c0,0.42 0.34,0.77 0.76,0.77l9.1 0c0.42,0 0.76,-0.34 0.76,-0.77l0 -9.08c0,-0.42 -0.34,-0.77 -0.76,-0.77zm-6.65 9.1l-1.57 0 0 -5.07 1.58 0 0 5.07 -0 0zm-0.79 -5.76c-0.5,0 -0.91,-0.41 -0.91,-0.91 0,-0.5 0.41,-0.91 0.91,-0.91 0.5,0 0.91,0.41 0.91,0.91 0,0.5 -0.41,0.91 -0.91,0.91l0 -0zm6.68 5.76l-1.57 0 0 -2.46c0,-0.59 -0.01,-1.34 -0.82,-1.34 -0.82,0 -0.95,0.64 -0.95,1.3l0 2.51 -1.57 0 0 -5.07 1.51 0 0 0.69 0.02 0c0.21,-0.4 0.73,-0.82 1.49,-0.82 1.59,0 1.89,1.05 1.89,2.41l0 2.78z"/>
  </g>
 </g>
</svg>
