<?xml version="1.0" encoding="UTF-8"?>
<!DOCTYPE svg PUBLIC "-//W3C//DTD SVG 1.1//EN" "http://www.w3.org/Graphics/SVG/1.1/DTD/svg11.dtd">
<!-- Creator: CorelDRAW 2021 (64 Bit) -->
<svg xmlns="http://www.w3.org/2000/svg" xml:space="preserve" width="0.9482mm" height="1.0838mm" version="1.1" style="shape-rendering:geometricPrecision; text-rendering:geometricPrecision; image-rendering:optimizeQuality; fill-rule:evenodd; clip-rule:evenodd"
viewBox="0 0 1.76 2.01"
 xmlns:xlink="http://www.w3.org/1999/xlink"
 xmlns:xodm="http://www.corel.com/coreldraw/odm/2003">
 <defs>
  <style type="text/css">
   <![CDATA[
    .fil0 {fill:#BE4BDB;fill-rule:nonzero}
   ]]>
  </style>
 </defs>
 <g id="Camada_x0020_1">
  <metadata id="CorelCorpID_0Corel-Layer"/>
  <g id="_2572364438656">
   <path class="fil0" d="M1.57 0.88l-0.09 0 0 -0.28c0,-0.33 -0.27,-0.6 -0.6,-0.6 -0.33,0 -0.6,0.27 -0.6,0.6l0 0.28 -0.09 0c-0.1,0 -0.19,0.08 -0.19,0.19l0 0.75c0,0.1 0.08,0.19 0.19,0.19l1.38 0c0.1,0 0.19,-0.08 0.19,-0.19l0 -0.75c0,-0.1 -0.08,-0.19 -0.19,-0.19zm-0.41 0l-0.57 0 0 -0.28c0,-0.16 0.13,-0.28 0.28,-0.28 0.16,0 0.28,0.13 0.28,0.28l0 0.28z"/>
  </g>
 </g>
</svg>
