<?xml version="1.0" encoding="UTF-8"?>
<!DOCTYPE svg PUBLIC "-//W3C//DTD SVG 1.1//EN" "http://www.w3.org/Graphics/SVG/1.1/DTD/svg11.dtd">
<!-- Creator: CorelDRAW 2021 (64 Bit) -->
<svg xmlns="http://www.w3.org/2000/svg" xml:space="preserve" width="25.4842mm" height="6.0707mm" version="1.1" style="shape-rendering:geometricPrecision; text-rendering:geometricPrecision; image-rendering:optimizeQuality; fill-rule:evenodd; clip-rule:evenodd"
viewBox="0 0 2548.42 607.07"
 xmlns:xlink="http://www.w3.org/1999/xlink"
 xmlns:xodm="http://www.corel.com/coreldraw/odm/2003">
 <defs>
  <style type="text/css">
   <![CDATA[
    .fil2 {fill:#B3B3B3;fill-rule:nonzero}
    .fil1 {fill:white;fill-rule:nonzero}
    .fil0 {fill:url(#id0);fill-rule:nonzero}
   ]]>
  </style>
  <linearGradient id="id0" gradientUnits="userSpaceOnUse" x1="187.88" y1="-166.8" x2="1440.88" y2="530.74">
   <stop offset="0" style="stop-opacity:1; stop-color:#CC33FF"/>
   <stop offset="0.431373" style="stop-opacity:1; stop-color:#CC38F6"/>
   <stop offset="0.780392" style="stop-opacity:1; stop-color:#CC5DAB"/>
   <stop offset="1" style="stop-opacity:1; stop-color:#CC6699"/>
  </linearGradient>
 </defs>
 <g id="Camada_x0020_1">
  <metadata id="CorelCorpID_0Corel-Layer"/>
  <path class="fil0" d="M-0 158.53l161.66 -68.3 14.66 45.49 -118.05 46.06 118.05 46.05 -14.66 45.49 -161.66 -68.29 0 -46.5zm279.35 96.75c5.52,0 10.77,-0.13 15.79,-0.38 5.01,-0.25 9.02,-0.63 12.03,-1.13l0 -42.48c-2.25,-0.5 -5.64,-1.01 -10.15,-1.5 -4.51,-0.51 -8.65,-0.76 -12.41,-0.76 -5.26,0 -10.21,0.32 -14.85,0.95 -4.64,0.62 -8.71,1.81 -12.22,3.56 -3.5,1.76 -6.26,4.14 -8.26,7.15 -2.01,3 -3.01,6.77 -3.01,11.28 0,8.77 2.94,14.85 8.83,18.23 5.89,3.39 13.97,5.08 24.25,5.08zm-4.51 -163.92c16.54,0 30.33,1.88 41.35,5.64 11.03,3.76 19.87,9.15 26.51,16.16 6.64,7.02 11.34,15.54 14.09,25.57 2.76,10.03 4.14,21.18 4.14,33.46l0 116.55c-8.02,1.75 -19.17,3.82 -33.46,6.2 -14.28,2.38 -31.58,3.57 -51.88,3.57 -12.78,0 -24.37,-1.12 -34.78,-3.38 -10.4,-2.26 -19.36,-5.95 -26.88,-11.09 -7.52,-5.14 -13.28,-11.85 -17.29,-20.11 -4.01,-8.28 -6.02,-18.43 -6.02,-30.46 0,-11.53 2.32,-21.3 6.96,-29.32 4.64,-8.02 10.84,-14.41 18.61,-19.18 7.77,-4.76 16.67,-8.2 26.69,-10.34 10.03,-2.13 20.43,-3.19 31.21,-3.19 7.26,0 13.72,0.31 19.36,0.94 5.64,0.62 10.21,1.44 13.72,2.44l0 -5.26c0,-9.53 -2.88,-17.17 -8.65,-22.94 -5.76,-5.76 -15.78,-8.64 -30.07,-8.64 -9.53,0 -18.93,0.69 -28.2,2.07 -9.27,1.37 -17.29,3.32 -24.06,5.82l-7.15 -45.11c3.26,-1 7.33,-2.07 12.22,-3.19 4.89,-1.13 10.22,-2.14 15.98,-3.01 5.77,-0.88 11.85,-1.64 18.24,-2.26 6.39,-0.63 12.84,-0.94 19.36,-0.94zm205.29 -88.72c10.52,0 20.17,1.06 28.94,3.19 8.78,2.13 15.54,4.2 20.31,6.2l-10.91 44.74c-5.01,-2.26 -10.46,-3.95 -16.35,-5.08 -5.89,-1.12 -11.34,-1.69 -16.35,-1.69 -6.77,0 -12.48,0.95 -17.11,2.82 -4.64,1.88 -8.28,4.45 -10.91,7.71 -2.62,3.26 -4.51,7.14 -5.63,11.65 -1.13,4.52 -1.7,9.41 -1.7,14.67l0 9.77 69.18 0 0 46.62 -69.18 0 0 151.14 -56.01 0 0 -208.28c0,-25.57 7.21,-45.87 21.62,-60.91 14.41,-15.04 35.77,-22.55 64.1,-22.55zm237.61 192.48c0,15.54 -2.25,29.77 -6.76,42.68 -4.51,12.9 -11.03,23.93 -19.55,33.08 -8.52,9.15 -18.74,16.22 -30.64,21.24 -11.91,5.01 -25.25,7.52 -40.04,7.52 -14.54,0 -27.76,-2.51 -39.66,-7.52 -11.91,-5.02 -22.13,-12.09 -30.64,-21.24 -8.53,-9.15 -15.17,-20.18 -19.93,-33.08 -4.77,-12.91 -7.15,-27.14 -7.15,-42.68 0,-15.53 2.45,-29.7 7.33,-42.48 4.9,-12.78 11.66,-23.69 20.31,-32.71 8.64,-9.02 18.92,-16.04 30.82,-21.05 11.91,-5.01 24.88,-7.52 38.92,-7.52 14.29,0 27.38,2.51 39.29,7.52 11.9,5.01 22.11,12.03 30.64,21.05 8.52,9.02 15.16,19.93 19.92,32.71 4.76,12.78 7.14,26.95 7.14,42.48zm-57.14 0c0,-17.29 -3.45,-30.89 -10.34,-40.79 -6.89,-9.9 -16.73,-14.85 -29.51,-14.85 -12.79,0 -22.69,4.95 -29.7,14.85 -7.02,9.9 -10.53,23.5 -10.53,40.79 0,17.3 3.51,31.02 10.53,41.17 7.01,10.15 16.91,15.22 29.7,15.22 12.78,0 22.62,-5.07 29.51,-15.22 6.89,-10.15 10.34,-23.87 10.34,-41.17zm83.1 -91.73c9.52,-2.76 21.8,-5.33 36.84,-7.71 15.04,-2.38 30.83,-3.57 47.37,-3.57 16.79,0 30.77,2.2 41.92,6.58 11.16,4.39 19.99,10.59 26.51,18.61 6.52,8.02 11.15,17.55 13.9,28.57 2.77,11.03 4.14,23.31 4.14,36.85l0 111.66 -56.01 0 0 -104.89c0,-18.05 -2.38,-30.83 -7.15,-38.35 -4.76,-7.52 -13.66,-11.28 -26.69,-11.28 -4.01,0 -8.27,0.19 -12.78,0.56 -4.51,0.38 -8.53,0.81 -12.03,1.32l0 152.64 -56.02 0 0 -190.99zm260.93 150.76c10.27,0 17.54,-1 21.8,-3.01 4.26,-2.01 6.39,-5.89 6.39,-11.65 0,-4.51 -2.75,-8.46 -8.27,-11.84 -5.51,-3.39 -13.91,-7.21 -25.19,-11.47 -8.77,-3.26 -16.73,-6.64 -23.87,-10.15 -7.14,-3.52 -13.22,-7.71 -18.23,-12.6 -5.01,-4.89 -8.9,-10.71 -11.66,-17.48 -2.76,-6.77 -4.13,-14.91 -4.13,-24.43 0,-18.55 6.89,-33.21 20.68,-43.99 13.78,-10.78 32.7,-16.17 56.77,-16.17 12.02,0 23.55,1.07 34.58,3.2 11.03,2.13 19.8,4.44 26.32,6.95l-9.77 43.61c-6.52,-2.25 -13.6,-4.26 -21.25,-6.02 -7.64,-1.75 -16.23,-2.63 -25.75,-2.63 -17.55,0 -26.32,4.89 -26.32,14.67 0,2.25 0.38,4.26 1.13,6.01 0.75,1.76 2.26,3.45 4.51,5.08 2.26,1.63 5.33,3.38 9.21,5.26 3.89,1.95 8.84,4.01 14.85,6.27 12.28,4.57 22.43,9.02 30.46,13.47 8.02,4.39 14.34,9.21 18.98,14.29 4.63,5.13 7.89,10.84 9.77,17.1 1.89,6.27 2.82,13.47 2.82,21.74 0,19.49 -7.33,34.28 -21.99,44.3 -14.66,9.97 -35.4,14.98 -62.22,14.98 -17.54,0 -32.14,-1.51 -43.8,-4.51 -11.65,-3.01 -19.74,-5.51 -24.25,-7.52l9.4 -45.49c9.52,3.76 19.3,6.71 29.33,8.83 10.02,2.13 19.92,3.2 29.7,3.2zm293.26 -59.03c0,15.54 -2.26,29.77 -6.77,42.68 -4.51,12.9 -11.03,23.93 -19.55,33.08 -8.52,9.15 -18.73,16.22 -30.64,21.24 -11.9,5.01 -25.25,7.52 -40.04,7.52 -14.53,0 -27.76,-2.51 -39.66,-7.52 -11.91,-5.02 -22.12,-12.09 -30.64,-21.24 -8.52,-9.15 -15.17,-20.18 -19.93,-33.08 -4.76,-12.91 -7.14,-27.14 -7.14,-42.68 0,-15.53 2.44,-29.7 7.33,-42.48 4.89,-12.78 11.66,-23.69 20.3,-32.71 8.65,-9.02 18.93,-16.04 30.83,-21.05 11.9,-5.01 24.87,-7.52 38.91,-7.52 14.29,0 27.38,2.51 39.29,7.52 11.9,5.01 22.12,12.03 30.64,21.05 8.52,9.02 15.16,19.93 19.93,32.71 4.76,12.78 7.14,26.95 7.14,42.48zm-57.15 0c0,-17.29 -3.44,-30.89 -10.34,-40.79 -6.89,-9.9 -16.73,-14.85 -29.51,-14.85 -12.78,0 -22.68,4.95 -29.7,14.85 -7.02,9.9 -10.52,23.5 -10.52,40.79 0,17.3 3.5,31.02 10.52,41.17 7.02,10.15 16.92,15.22 29.7,15.22 12.78,0 22.62,-5.07 29.51,-15.22 6.9,-10.15 10.34,-23.87 10.34,-41.17zm94.38 168.81l-57.51 0 126.38 -363.93 56.7 0 -125.57 363.93zm293.64 -158.9l-161.66 68.29 -14.66 -45.49 118.05 -46.05 -118.05 -46.06 14.66 -45.49 161.66 68.3 0 46.5z"/>
  <path class="fil1" d="M1802.72 128.21c-3.76,-1.26 -8.96,-2.57 -15.61,-3.95 -6.64,-1.38 -14.34,-2.07 -23.12,-2.07 -5.01,0 -10.34,0.5 -15.97,1.5 -5.64,1.01 -9.59,1.89 -11.85,2.63l0 157.53 -45.49 0 0 -187.22c8.78,-3.26 19.74,-6.34 32.9,-9.21 13.16,-2.89 27.76,-4.33 43.8,-4.33 3.01,0 6.51,0.19 10.52,0.57 4.01,0.37 8.03,0.87 12.03,1.5 4.02,0.62 7.9,1.38 11.66,2.26 3.76,0.87 6.77,1.69 9.02,2.44l-7.89 38.35zm5.21 58.27c0,-17.29 2.57,-32.46 7.71,-45.49 5.13,-13.03 11.97,-23.87 20.49,-32.52 8.52,-8.65 18.29,-15.17 29.32,-19.55 11.03,-4.39 22.31,-6.58 33.84,-6.58 27.07,0 48.18,8.39 63.35,25.19 15.16,16.79 22.74,41.85 22.74,75.19 0,2.5 -0.06,5.32 -0.19,8.46 -0.12,3.13 -0.31,5.95 -0.56,8.46l-129.71 0c1.26,15.79 6.83,28.01 16.74,36.65 9.9,8.65 24.24,12.97 43.04,12.97 11.03,0 21.12,-1 30.27,-3 9.14,-2.01 16.35,-4.14 21.62,-6.4l6.01 37.23c-2.51,1.25 -5.96,2.57 -10.34,3.94 -4.38,1.38 -9.4,2.63 -15.04,3.76 -5.64,1.13 -11.71,2.07 -18.23,2.82 -6.52,0.75 -13.16,1.13 -19.93,1.13 -17.29,0 -32.33,-2.57 -45.11,-7.71 -12.78,-5.14 -23.31,-12.28 -31.58,-21.43 -8.27,-9.15 -14.41,-19.92 -18.42,-32.33 -4.01,-12.41 -6.02,-26 -6.02,-40.79zm131.96 -20.3c0,-6.27 -0.88,-12.22 -2.63,-17.86 -1.75,-5.64 -4.32,-10.53 -7.71,-14.67 -3.38,-4.13 -7.52,-7.39 -12.4,-9.77 -4.89,-2.38 -10.72,-3.57 -17.48,-3.57 -7.03,0 -13.16,1.32 -18.43,3.95 -5.26,2.63 -9.71,6.08 -13.34,10.34 -3.64,4.26 -6.46,9.15 -8.46,14.66 -2.01,5.51 -3.39,11.15 -4.14,16.92l84.59 0zm70.26 -72.56c8.77,-2.51 20.17,-4.89 34.21,-7.14 14.03,-2.26 29.57,-3.39 46.62,-3.39 16.04,0 29.45,2.19 40.23,6.58 10.78,4.39 19.36,10.53 25.75,18.42 6.39,7.9 10.9,17.42 13.53,28.57 2.63,11.16 3.95,23.38 3.95,36.66l0 110.53 -45.49 0 0 -103.39c0,-10.52 -0.69,-19.48 -2.07,-26.88 -1.38,-7.39 -3.63,-13.41 -6.77,-18.04 -3.13,-4.64 -7.39,-8.02 -12.78,-10.15 -5.39,-2.13 -11.96,-3.2 -19.73,-3.2 -5.77,0 -11.79,0.38 -18.05,1.13 -6.27,0.75 -10.9,1.38 -13.91,1.88l0 158.65 -45.49 0 0 -190.23zm265.75 158.27c14.04,0 24.69,-0.74 31.96,-2.25l0 -50.38c-2.51,-0.75 -6.15,-1.5 -10.91,-2.25 -4.76,-0.76 -10.02,-1.13 -15.78,-1.13 -5.02,0 -10.1,0.37 -15.23,1.13 -5.14,0.75 -9.78,2.13 -13.91,4.13 -4.13,2 -7.46,4.82 -9.96,8.46 -2.51,3.63 -3.77,8.21 -3.77,13.73 0,10.77 3.39,18.22 10.16,22.36 6.77,4.14 15.91,6.2 27.44,6.2zm-3.76 -169.55c15.04,0 27.7,1.88 37.97,5.64 10.28,3.76 18.49,9.02 24.63,15.79 6.14,6.77 10.52,14.97 13.15,24.63 2.64,9.64 3.95,20.23 3.95,31.76l0 119.18c-7.01,1.5 -17.6,3.32 -31.77,5.45 -14.15,2.13 -30.13,3.2 -47.93,3.2 -11.78,0 -22.55,-1.13 -32.33,-3.38 -9.77,-2.26 -18.11,-5.9 -25,-10.91 -6.89,-5.01 -12.28,-11.53 -16.17,-19.55 -3.88,-8.02 -5.82,-17.92 -5.82,-29.7 0,-11.28 2.19,-20.8 6.58,-28.57 4.38,-7.77 10.34,-14.1 17.85,-18.99 7.52,-4.88 16.23,-8.39 26.13,-10.52 9.9,-2.13 20.24,-3.2 31.02,-3.2 5.01,0 10.27,0.31 15.79,0.94 5.51,0.62 11.4,1.69 17.67,3.19l0 -7.52c0,-5.26 -0.63,-10.27 -1.88,-15.03 -1.26,-4.76 -3.45,-8.96 -6.58,-12.6 -3.13,-3.63 -7.27,-6.45 -12.41,-8.46 -5.14,-2 -11.59,-3 -19.36,-3 -10.53,0 -20.17,0.75 -28.95,2.25 -8.77,1.51 -15.92,3.26 -21.43,5.27l-5.64 -36.85c5.77,-2 14.16,-4.01 25.19,-6.01 11.03,-2.01 22.81,-3.01 35.34,-3.01zm111.99 11.28c8.77,-2.51 20.17,-4.89 34.21,-7.14 14.03,-2.26 29.57,-3.39 46.62,-3.39 16.04,0 29.45,2.19 40.22,6.58 10.78,4.39 19.37,10.53 25.76,18.42 6.39,7.9 10.9,17.42 13.53,28.57 2.63,11.16 3.95,23.38 3.95,36.66l0 110.53 -45.49 0 0 -103.39c0,-10.52 -0.69,-19.48 -2.07,-26.88 -1.38,-7.39 -3.64,-13.41 -6.77,-18.04 -3.13,-4.64 -7.39,-8.02 -12.78,-10.15 -5.39,-2.13 -11.97,-3.2 -19.74,-3.2 -5.76,0 -11.78,0.38 -18.05,1.13 -6.26,0.75 -10.89,1.38 -13.9,1.88l0 158.65 -45.49 0 0 -190.23z"/>
  <path class="fil2" d="M1014.18 560.2c0,7.97 -1.24,14.89 -3.72,20.78 -2.48,5.88 -5.97,10.75 -10.49,14.6 -4.51,3.85 -9.91,6.73 -16.19,8.63 -6.29,1.91 -13.19,2.86 -20.71,2.86 -3.72,0 -7.82,-0.16 -12.29,-0.47 -4.46,-0.31 -8.51,-0.91 -12.14,-1.79l0 -89.22c3.63,-0.88 7.68,-1.48 12.14,-1.79 4.47,-0.31 8.57,-0.46 12.29,-0.46 7.52,0 14.42,0.95 20.71,2.85 6.28,1.91 11.68,4.78 16.19,8.63 4.52,3.85 8.01,8.72 10.49,14.61 2.48,5.88 3.72,12.81 3.72,20.77zm-50.05 35.58c12.21,0 21.33,-3.12 27.35,-9.36 6.01,-6.24 9.02,-14.98 9.02,-26.22 0,-11.24 -3.01,-19.98 -9.02,-26.22 -6.02,-6.24 -15.14,-9.36 -27.35,-9.36 -3.63,0 -6.44,0.05 -8.43,0.14 -1.99,0.08 -3.39,0.17 -4.18,0.26l0 70.36c0.79,0.09 2.19,0.18 4.18,0.27 1.99,0.09 4.8,0.13 8.43,0.13zm364.24 10.49l0 -92 56.15 0 0 11.02 -43.27 0 0 27.34 38.5 0 0 10.76 -38.5 0 0 31.86 46.59 0 0 11.02 -59.47 0zm445.22 -92c-3.36,9.73 -6.57,18.74 -9.62,27.01 -3.06,8.28 -6.04,16.13 -8.96,23.57 -2.92,7.43 -5.82,14.54 -8.7,21.31 -2.88,6.77 -5.82,13.47 -8.83,20.11l-12.08 0c-3.01,-6.64 -5.95,-13.34 -8.83,-20.11 -2.87,-6.77 -5.79,-13.88 -8.76,-21.31 -2.96,-7.44 -6,-15.29 -9.09,-23.57 -3.1,-8.27 -6.29,-17.28 -9.56,-27.01l14.2 0c4.78,13.98 9.47,27.43 14.08,40.36 4.6,12.92 9.33,25.04 14.2,36.37 4.87,-11.24 9.6,-23.34 14.21,-36.31 4.6,-12.96 9.25,-26.44 13.94,-40.42l13.8 0z"/>
 </g>
</svg>
