<?xml version="1.0" encoding="UTF-8"?>
<!DOCTYPE svg PUBLIC "-//W3C//DTD SVG 1.1//EN" "http://www.w3.org/Graphics/SVG/1.1/DTD/svg11.dtd">
<!-- Creator: CorelDRAW 2021 (64 Bit) -->
<svg xmlns="http://www.w3.org/2000/svg" xml:space="preserve" width="8.1008mm" height="9.137mm" version="1.1" style="shape-rendering:geometricPrecision; text-rendering:geometricPrecision; image-rendering:optimizeQuality; fill-rule:evenodd; clip-rule:evenodd"
viewBox="0 0 1546.25 1744.04"
 xmlns:xlink="http://www.w3.org/1999/xlink"
 xmlns:xodm="http://www.corel.com/coreldraw/odm/2003">
 <defs>
  <style type="text/css">
   <![CDATA[
    .fil0 {fill:#FD7E14;fill-rule:nonzero}
   ]]>
  </style>
 </defs>
 <g id="Camada_x0020_1">
  <metadata id="CorelCorpID_0Corel-Layer"/>
  <g id="_2570632833728">
   <path class="fil0" d="M772.78 1744.04c-23.19,0 -46.73,-6.22 -67.15,-17.98l-213.51 -126.32c-31.84,-18 -16.28,-24.22 -5.9,-27.7 42.58,-14.87 51.23,-17.98 96.56,-43.94 4.85,-2.77 11.07,-1.74 15.92,1.37l164.04 97.25c5.88,3.45 14.18,3.45 19.72,0l639.21 -368.91c5.88,-3.47 9.7,-10.38 9.7,-17.31l0 -737.83c0,-7.27 -3.82,-13.84 -10.04,-17.66l-638.86 -368.56c-5.88,-3.45 -13.84,-3.45 -19.72,0l-638.5 368.93c-6.24,3.45 -10.04,10.36 -10.04,17.64l0 737.49c0,6.93 3.8,13.84 10.04,16.95l175.11 101.07c95.17,47.41 153.31,-8.32 153.31,-64.73l0 -728.14c0,-10.38 8.3,-18.34 18.69,-18.34l80.97 0c10.04,0 18.69,7.96 18.69,18.34l0 728.48c0,126.67 -69.21,199.35 -189.29,199.35 -37.03,0 -66.1,0 -147.09,-40.14l-167.49 -96.56c-41.53,-23.88 -67.13,-68.52 -67.13,-116.63l0 -737.49c0,-47.76 25.6,-92.75 67.13,-116.63l638.5 -368.91c40.5,-22.85 94.14,-22.85 134.28,0l639.21 369.25c41.52,23.88 67.13,68.52 67.13,116.63l0 737.49c0,47.76 -25.62,92.4 -67.13,116.63l-639.21 368.93c-20.42,11.76 -43.6,17.98 -67.13,17.98zm516 -727.09c0,-138.1 -93.45,-174.79 -289.67,-200.73 -198.65,-26.3 -218.71,-39.8 -218.71,-86.18 0,-38.4 16.95,-89.64 164.04,-89.64 131.15,0 179.6,28.38 199.68,116.97 1.74,8.3 9.35,14.54 18,14.54l83.05 0c5.19,0 10.04,-2.08 13.49,-5.88 3.47,-3.82 5.19,-9.01 4.85,-14.2 -12.81,-152.61 -114.2,-223.55 -319.09,-223.55 -182.36,0 -291.05,76.83 -291.05,205.92 0,139.82 108.32,178.56 283.09,195.88 209.39,20.4 225.65,51.21 225.65,92.4 0,71.29 -57.45,101.74 -192.08,101.74 -169.23,0 -206.26,-42.57 -218.73,-126.67 -1.37,-8.99 -8.99,-15.58 -18.32,-15.58l-82.73 0c-10.38,0 -18.34,8.3 -18.34,18.34 0,107.64 58.5,236.02 338.46,236.02 202.12,-0.34 318.4,-80.28 318.4,-219.39z"/>
  </g>
 </g>
</svg>
