<?xml version="1.0" encoding="UTF-8"?>
<!DOCTYPE svg PUBLIC "-//W3C//DTD SVG 1.1//EN" "http://www.w3.org/Graphics/SVG/1.1/DTD/svg11.dtd">
<!-- Creator: CorelDRAW 2021 (64 Bit) -->
<svg xmlns="http://www.w3.org/2000/svg" xml:space="preserve" width="11.4207mm" height="6.0065mm" version="1.1" style="shape-rendering:geometricPrecision; text-rendering:geometricPrecision; image-rendering:optimizeQuality; fill-rule:evenodd; clip-rule:evenodd"
viewBox="0 0 272.57 143.35"
 xmlns:xlink="http://www.w3.org/1999/xlink"
 xmlns:xodm="http://www.corel.com/coreldraw/odm/2003">
 <defs>
  <style type="text/css">
   <![CDATA[
    .fil0 {fill:#FD7E14;fill-rule:nonzero}
   ]]>
  </style>
 </defs>
 <g id="Camada_x0020_1">
  <metadata id="CorelCorpID_0Corel-Layer"/>
  <g>
   <path class="fil0" d="M136.29 7.16c73,0 129.13,30.75 129.13,64.52 0,33.77 -56.17,64.52 -129.13,64.52 -73,0 -129.13,-30.75 -129.13,-64.52 0,-33.77 56.18,-64.52 129.13,-64.52l0 0zm0 -7.16c-75.26,0 -136.29,32.07 -136.29,71.68 0,39.61 61.03,71.68 136.29,71.68 75.25,0 136.28,-32.07 136.28,-71.68 0,-39.61 -61.03,-71.68 -136.28,-71.68zm-43.36 65.93c-3.37,17.25 -15.25,15.46 -29.86,15.46l5.84 -30.07c16.18,0 27.17,-1.75 24.02,14.61l0 0zm-51.45 45.91l15.63 0 3.71 -19.08c17.5,0 28.36,1.28 38.42,-8.14 11.11,-10.22 14.01,-28.41 6.09,-37.52 -4.13,-4.77 -10.77,-7.11 -19.8,-7.11l-30.11 0 -13.93 71.85zm79.09 -90.97l15.54 0 -3.7 19.08c13.42,0 25.85,-0.98 31.86,4.56 6.3,5.79 3.28,13.2 -3.53,48.17l-15.76 0c6.56,-33.82 7.79,-36.63 5.41,-39.18 -2.3,-2.47 -7.54,-1.96 -20.19,-1.96l-8.01 41.14 -15.54 0 13.93 -71.8 0 0zm94.51 45.06c-3.41,17.51 -15.63,15.46 -29.86,15.46l5.84 -30.07c16.27,0 27.17,-1.75 24.02,14.61l0 0zm-51.45 45.91l15.67 0 3.7 -19.08c18.4,0 28.58,1.06 38.42,-8.14 11.12,-10.22 14.01,-28.41 6.09,-37.52 -4.13,-4.77 -10.78,-7.11 -19.8,-7.11l-30.11 0 -13.97 71.85z"/>
  </g>
 </g>
</svg>
