<?xml version="1.0" encoding="UTF-8"?>
<!DOCTYPE svg PUBLIC "-//W3C//DTD SVG 1.1//EN" "http://www.w3.org/Graphics/SVG/1.1/DTD/svg11.dtd">
<!-- Creator: CorelDRAW 2021 (64 Bit) -->
<svg xmlns="http://www.w3.org/2000/svg" xml:space="preserve" width="9.8264mm" height="8.5987mm" version="1.1" style="shape-rendering:geometricPrecision; text-rendering:geometricPrecision; image-rendering:optimizeQuality; fill-rule:evenodd; clip-rule:evenodd"
viewBox="0 0 349.51 305.84"
 xmlns:xlink="http://www.w3.org/1999/xlink"
 xmlns:xodm="http://www.corel.com/coreldraw/odm/2003">
 <defs>
  <style type="text/css">
   <![CDATA[
    .fil0 {fill:#BE4BDB;fill-rule:nonzero}
   ]]>
  </style>
 </defs>
 <g id="Camada_x0020_1">
  <metadata id="CorelCorpID_0Corel-Layer"/>
  <g id="_2570631370656">
   <path class="fil0" d="M285.48 99.11c-3.68,-1.23 -7.37,-2.39 -11.06,-3.48 0.62,-2.53 1.16,-5.05 1.71,-7.58 8.4,-40.69 2.87,-73.39 -15.77,-84.17 -17.96,-10.31 -47.24,0.41 -76.87,26.21 -2.93,2.53 -5.8,5.19 -8.53,7.85 -1.84,-1.77 -3.75,-3.55 -5.67,-5.26 -31.06,-27.58 -62.19,-39.18 -80.82,-28.33 -17.89,10.38 -23.21,41.16 -15.7,79.66 0.75,3.82 1.57,7.58 2.53,11.4 -4.37,1.23 -8.67,2.59 -12.7,4.03 -36.45,12.63 -62.6,32.56 -62.6,53.18 0,21.29 27.85,42.66 65.74,55.63 3.07,1.02 6.14,2.05 9.28,2.93 -1.02,4.1 -1.91,8.12 -2.73,12.29 -7.17,37.89 -1.57,67.92 16.32,78.23 18.43,10.65 49.42,-0.27 79.6,-26.69 2.39,-2.12 4.78,-4.3 7.17,-6.62 3.01,2.94 6.15,5.74 9.28,8.47 29.22,25.12 58.09,35.29 75.91,24.99 18.43,-10.65 24.44,-42.94 16.66,-82.26 -0.62,-3 -1.3,-6.08 -2.05,-9.22 2.18,-0.62 4.3,-1.29 6.42,-1.98 39.39,-13.04 67.93,-34.13 67.93,-55.77 0,-20.69 -26.9,-40.75 -64.03,-53.52l0 0zm-92.36 -57.96c25.4,-22.12 49.08,-30.79 59.87,-24.57 11.53,6.62 15.97,33.38 8.74,68.53 -0.48,2.32 -0.95,4.57 -1.57,6.83 -15.16,-3.41 -30.51,-5.87 -45.94,-7.24 -8.87,-12.69 -18.57,-24.85 -29.08,-36.25 2.66,-2.53 5.26,-4.92 7.99,-7.3zm-78.98 146.9c3.48,5.94 7.03,11.88 10.78,17.68 -10.65,-1.16 -21.23,-2.87 -31.67,-5.12 3.01,-9.83 6.76,-20 11.13,-30.38 3.14,6.01 6.35,11.95 9.76,17.82l0 0zm-20.68 -82.12c9.83,-2.18 20.27,-3.96 31.13,-5.32 -3.62,5.67 -7.17,11.47 -10.51,17.34 -3.35,5.8 -6.62,11.74 -9.7,17.75 -4.3,-10.17 -7.92,-20.14 -10.92,-29.76zm18.7 47.03c4.51,-9.42 9.42,-18.63 14.61,-27.72 5.19,-9.08 10.78,-17.88 16.65,-26.55 10.24,-0.75 20.69,-1.16 31.34,-1.16 10.65,0 21.16,0.41 31.33,1.16 5.8,8.6 11.33,17.41 16.59,26.42 5.25,9.01 10.17,18.23 14.81,27.58 -4.57,9.42 -9.49,18.7 -14.74,27.85 -5.19,9.08 -10.72,17.88 -16.52,26.62 -10.17,0.75 -20.75,1.09 -31.47,1.09 -10.72,0 -21.1,-0.34 -31.13,-0.96 -5.94,-8.67 -11.53,-17.54 -16.79,-26.62 -5.26,-9.08 -10.11,-18.29 -14.68,-27.72l-0 0zm123.28 34.95c3.48,-6.01 6.76,-12.08 9.97,-18.23 4.37,9.9 8.19,19.93 11.54,30.24 -10.58,2.39 -21.3,4.23 -32.08,5.46 3.68,-5.73 7.17,-11.61 10.58,-17.47l0 0zm9.83 -52.22c-3.21,-6.01 -6.48,-12.02 -9.9,-17.88 -3.34,-5.8 -6.83,-11.54 -10.44,-17.2 10.99,1.37 21.5,3.21 31.33,5.46 -3.14,10.1 -6.83,19.93 -10.99,29.63zm-70.38 -76.8c7.17,7.78 13.93,15.97 20.21,24.44 -13.52,-0.62 -27.1,-0.62 -40.62,0 6.69,-8.81 13.58,-17 20.41,-24.44zm-79.19 -41.85c11.47,-6.69 36.93,2.87 63.76,26.62 1.7,1.5 3.41,3.14 5.19,4.78 -10.58,11.4 -20.34,23.55 -29.28,36.25 -15.43,1.37 -30.72,3.76 -45.87,7.1 -0.89,-3.48 -1.64,-7.03 -2.39,-10.58 -6.42,-33.04 -2.18,-57.96 8.6,-64.17l0 0zm-16.72 179.94c-2.87,-0.82 -5.67,-1.7 -8.47,-2.66 -14.54,-4.57 -31.06,-11.81 -43.01,-21.3 -6.89,-4.78 -11.53,-12.15 -12.83,-20.41 0,-12.5 21.57,-28.47 52.7,-39.32 3.89,-1.37 7.85,-2.59 11.81,-3.76 4.64,14.81 10.24,29.35 16.72,43.42 -6.56,14.27 -12.22,29.01 -16.93,44.03zm79.6 66.9c-11.26,10.31 -24.3,18.5 -38.5,24.1 -7.58,3.62 -16.32,3.96 -24.1,0.89 -10.86,-6.28 -15.36,-30.38 -9.22,-62.8 0.75,-3.82 1.57,-7.64 2.53,-11.4 15.29,3.28 30.72,5.53 46.35,6.69 9.01,12.77 18.91,24.98 29.49,36.45 -2.19,2.11 -4.37,4.16 -6.56,6.08l0 0zm16.72 -16.59c-6.96,-7.51 -13.93,-15.84 -20.68,-24.78 6.55,0.27 13.31,0.41 20.14,0.41 7.03,0 13.93,-0.14 20.75,-0.48 -6.28,8.67 -13.04,16.93 -20.21,24.85l0 0zm89.22 20.48c-0.61,8.33 -4.71,16.11 -11.26,21.37 -10.86,6.28 -34,-1.91 -58.98,-23.35 -2.87,-2.46 -5.74,-5.12 -8.67,-7.85 10.45,-11.53 20.07,-23.76 28.81,-36.59 15.63,-1.3 31.2,-3.68 46.56,-7.17 0.68,2.8 1.3,5.59 1.85,8.33 3.34,14.75 3.89,30.11 1.7,45.26l0 0zm12.42 -73.39c-1.91,0.62 -3.82,1.23 -5.8,1.77 -4.78,-14.88 -10.65,-29.42 -17.41,-43.55 6.55,-13.93 12.08,-28.26 16.72,-42.94 3.55,1.02 6.96,2.12 10.24,3.21 31.81,10.92 54.13,27.17 54.13,39.59 0,13.38 -23.82,30.65 -57.89,41.91l0 0zm-102.19 -10.24c17.27,0 31.26,-13.99 31.26,-31.26 0,-17.27 -14,-31.26 -31.26,-31.26 -17.27,0 -31.26,14 -31.26,31.26 0,17.27 13.99,31.26 31.26,31.26z"/>
  </g>
 </g>
</svg>
