<?xml version="1.0" encoding="UTF-8"?>
<!DOCTYPE svg PUBLIC "-//W3C//DTD SVG 1.1//EN" "http://www.w3.org/Graphics/SVG/1.1/DTD/svg11.dtd">
<!-- Creator: CorelDRAW 2021 (64 Bit) -->
<svg xmlns="http://www.w3.org/2000/svg" xml:space="preserve" width="16.8266mm" height="16.8266mm" version="1.1" style="shape-rendering:geometricPrecision; text-rendering:geometricPrecision; image-rendering:optimizeQuality; fill-rule:evenodd; clip-rule:evenodd"
viewBox="0 0 465.34 465.34"
 xmlns:xlink="http://www.w3.org/1999/xlink"
 xmlns:xodm="http://www.corel.com/coreldraw/odm/2003">
 <defs>
  <style type="text/css">
   <![CDATA[
    .str0 {stroke:#BE4BDB;stroke-width:4.68;stroke-miterlimit:22.9256}
    .fil3 {fill:none}
    .fil0 {fill:#2D3240}
    .fil1 {fill:#9933CC}
    .fil2 {fill:#CC6699}
   ]]>
  </style>
   <clipPath id="id0">
    <path d="M232.67 2.34c127.2,0 230.33,103.12 230.33,230.33 0,127.2 -103.12,230.33 -230.33,230.33 -127.2,0 -230.33,-103.12 -230.33,-230.33 0,-127.2 103.12,-230.33 230.33,-230.33z"/>
   </clipPath>
    <clipPath id="id1">
     <path d="M232.67 2.34c127.2,0 230.33,103.12 230.33,230.33 0,127.2 -103.12,230.33 -230.33,230.33 -127.2,0 -230.33,-103.12 -230.33,-230.33 0,-127.2 103.12,-230.33 230.33,-230.33z"/>
    </clipPath>
    <clipPath id="id2">
     <path d="M232.67 2.34c127.2,0 230.33,103.12 230.33,230.33 0,127.2 -103.12,230.33 -230.33,230.33 -127.2,0 -230.33,-103.12 -230.33,-230.33 0,-127.2 103.12,-230.33 230.33,-230.33z"/>
    </clipPath>
     <mask id="id3">
  <linearGradient id="id4" gradientUnits="userSpaceOnUse" x1="36.77" y1="270.36" x2="251.23" y2="185.86">
   <stop offset="0" style="stop-opacity:1; stop-color:white"/>
   <stop offset="1" style="stop-opacity:0; stop-color:white"/>
  </linearGradient>
      <rect style="fill:url(#id4)" x="-172.27" y="-191.47" width="553.42" height="729.69"/>
     </mask>
     <mask id="id5">
  <linearGradient id="id6" gradientUnits="userSpaceOnUse" x1="372.38" y1="16.25" x2="157.92" y2="100.74">
   <stop offset="0" style="stop-opacity:1; stop-color:white"/>
   <stop offset="1" style="stop-opacity:0; stop-color:white"/>
  </linearGradient>
      <rect style="fill:url(#id6)" x="28" y="-251.61" width="553.42" height="729.69"/>
     </mask>
 </defs>
 <g id="Camada_x0020_1">
  <metadata id="CorelCorpID_0Corel-Layer"/>
  <path class="fil0" d="M232.67 2.34c127.2,0 230.33,103.12 230.33,230.33 0,127.2 -103.12,230.33 -230.33,230.33 -127.2,0 -230.33,-103.12 -230.33,-230.33 0,-127.2 103.12,-230.33 230.33,-230.33z"/>
  <g style="clip-path:url(#id0)">
   <g id="_2572650971536">
   </g>
   <g style="clip-path:url(#id1)">
    <image transform="matrix(0.0645023 0.0372404 -0.0372404 0.0645023 122.356 -51.4955)" x="0" y="0" width="7024.38" height="6770.72" xlink:href="renan_afonso_Images\renan_afonso_ImgID1.png"/>
   </g>
   <g style="clip-path:url(#id2)">
    <polygon class="fil1" style="mask:url(#id3)" points="-169.5,-67.25 147.41,-188.7 378.38,414.01 61.47,535.46 "/>
    <polygon class="fil2" style="mask:url(#id5)" points="578.65,353.86 261.74,475.31 30.77,-127.4 347.68,-248.85 "/>
   </g>
  </g>
  <path class="fil3 str0" d="M232.67 2.34c127.2,0 230.33,103.12 230.33,230.33 0,127.2 -103.12,230.33 -230.33,230.33 -127.2,0 -230.33,-103.12 -230.33,-230.33 0,-127.2 103.12,-230.33 230.33,-230.33z"/>
 </g>
</svg>
