<?xml version="1.0" encoding="UTF-8"?>
<!DOCTYPE svg PUBLIC "-//W3C//DTD SVG 1.1//EN" "http://www.w3.org/Graphics/SVG/1.1/DTD/svg11.dtd">
<!-- Creator: CorelDRAW 2021 (64 Bit) -->
<svg xmlns="http://www.w3.org/2000/svg" xml:space="preserve" width="3.0212mm" height="3.0212mm" version="1.1" style="shape-rendering:geometricPrecision; text-rendering:geometricPrecision; image-rendering:optimizeQuality; fill-rule:evenodd; clip-rule:evenodd"
viewBox="0 0 12.98 12.98"
 xmlns:xlink="http://www.w3.org/1999/xlink"
 xmlns:xodm="http://www.corel.com/coreldraw/odm/2003">
 <defs>
  <style type="text/css">
   <![CDATA[
    .fil0 {fill:url(#id0);fill-rule:nonzero}
   ]]>
  </style>
  <linearGradient id="id0" gradientUnits="userSpaceOnUse" x1="-0" y1="6.49" x2="12.98" y2="6.49">
   <stop offset="0" style="stop-opacity:1; stop-color:#CC33FF"/>
   <stop offset="1" style="stop-opacity:1; stop-color:#CC6699"/>
  </linearGradient>
 </defs>
 <g id="Camada_x0020_1">
  <metadata id="CorelCorpID_0Corel-Layer"/>
  <path class="fil0" d="M11.04 1.89c-1.21,-1.22 -2.83,-1.89 -4.55,-1.89 -3.55,0 -6.43,2.89 -6.43,6.43 0,1.13 0.3,2.24 0.86,3.22l-0.91 3.33 3.41 -0.9c0.94,0.51 2,0.78 3.07,0.78l0 0c3.54,0 6.49,-2.89 6.49,-6.43 0,-1.72 -0.73,-3.33 -1.94,-4.55zm-4.55 9.9c-0.96,0 -1.9,-0.26 -2.72,-0.74l-0.19 -0.12 -2.02 0.53 0.54 -1.97 -0.13 -0.2c-0.54,-0.85 -0.82,-1.83 -0.82,-2.84 0,-2.95 2.4,-5.35 5.35,-5.35 1.43,0 2.77,0.56 3.78,1.57 1.01,1.01 1.63,2.35 1.63,3.78 0,2.95 -2.46,5.35 -5.41,5.35l0 0zm2.93 -4c-0.16,-0.08 -0.95,-0.47 -1.1,-0.52 -0.15,-0.05 -0.25,-0.08 -0.36,0.08 -0.11,0.16 -0.41,0.52 -0.51,0.63 -0.09,0.11 -0.19,0.12 -0.35,0.04 -0.94,-0.47 -1.56,-0.84 -2.19,-1.91 -0.16,-0.28 0.17,-0.26 0.47,-0.88 0.05,-0.11 0.03,-0.2 -0.01,-0.28 -0.04,-0.08 -0.36,-0.87 -0.5,-1.19 -0.13,-0.31 -0.26,-0.27 -0.36,-0.28 -0.09,-0.01 -0.2,-0.01 -0.31,-0.01 -0.11,0 -0.28,0.04 -0.43,0.2 -0.15,0.16 -0.56,0.55 -0.56,1.34 0,0.79 0.58,1.56 0.65,1.66 0.08,0.11 1.13,1.73 2.75,2.43 1.02,0.44 1.42,0.48 1.93,0.4 0.31,-0.05 0.95,-0.39 1.08,-0.77 0.13,-0.38 0.13,-0.7 0.09,-0.76 -0.04,-0.07 -0.14,-0.11 -0.3,-0.19l0 0z"/>
 </g>
</svg>
