<?xml version="1.0" encoding="UTF-8"?>
<!DOCTYPE svg PUBLIC "-//W3C//DTD SVG 1.1//EN" "http://www.w3.org/Graphics/SVG/1.1/DTD/svg11.dtd">
<!-- Creator: CorelDRAW 2021 (64 Bit) -->
<svg xmlns="http://www.w3.org/2000/svg" xml:space="preserve" width="7.4574mm" height="7.4574mm" version="1.1" style="shape-rendering:geometricPrecision; text-rendering:geometricPrecision; image-rendering:optimizeQuality; fill-rule:evenodd; clip-rule:evenodd"
viewBox="0 0 245.85 245.85"
 xmlns:xlink="http://www.w3.org/1999/xlink"
 xmlns:xodm="http://www.corel.com/coreldraw/odm/2003">
 <defs>
  <style type="text/css">
   <![CDATA[
    .fil0 {fill:#BE4BDB;fill-rule:nonzero}
   ]]>
  </style>
 </defs>
 <g id="Camada_x0020_1">
  <metadata id="CorelCorpID_0Corel-Layer"/>
  <g id="_2570730704112">
   <path class="fil0" d="M26.62 80l50.31 137.79c-35.19,-17.05 -59.43,-53.14 -59.43,-94.87 0,-15.32 3.27,-29.79 9.12,-42.92zm167.49 37.62c0,-13.04 -4.66,-22.06 -8.67,-29.09 -5.35,-8.67 -10.36,-16.06 -10.36,-24.74 0,-9.72 7.34,-18.74 17.69,-18.74 0.45,0 0.89,0.05 1.39,0.1 -18.78,-17.2 -43.77,-27.71 -71.23,-27.71 -36.83,0 -69.25,18.89 -88.13,47.54 2.48,0.1 4.81,0.15 6.79,0.15 11,0 28.1,-1.34 28.1,-1.34 5.7,-0.35 6.35,8.03 0.7,8.67 0,0 -5.7,0.65 -12.05,0.99l38.42 114.2 23.1 -69.2 -16.41 -45.01c-5.7,-0.35 -11.05,-0.99 -11.05,-0.99 -5.7,-0.35 -5.01,-9.02 0.64,-8.67 0,0 17.4,1.34 27.76,1.34 11,0 28.1,-1.34 28.1,-1.34 5.7,-0.35 6.35,8.03 0.7,8.67 0,0 -5.7,0.65 -12.05,0.99l38.12 113.36 10.51 -35.14c4.46,-14.57 7.93,-25.03 7.93,-34.05l0 0zm-69.34 14.52l-31.62 91.95c9.47,2.78 19.43,4.31 29.79,4.31 12.29,0 24.04,-2.13 35,-6 -0.3,-0.45 -0.55,-0.94 -0.75,-1.44l-32.42 -88.82zm90.71 -59.83c0.45,3.37 0.7,6.94 0.7,10.86 0,10.7 -1.98,22.7 -8.03,37.77l-32.22 93.14c31.38,-18.29 52.44,-52.24 52.44,-91.15 0,-18.34 -4.66,-35.59 -12.89,-50.61zm30.39 50.61c0,67.81 -55.17,122.93 -122.93,122.93 -67.81,0 -122.93,-55.17 -122.93,-122.93 0,-67.81 55.12,-122.93 122.93,-122.93 67.76,0 122.93,55.12 122.93,122.93zm-5.65 0c0,-64.69 -52.64,-117.28 -117.28,-117.28 -64.69,0 -117.28,52.59 -117.28,117.28 0,64.69 52.64,117.28 117.28,117.28 64.69,0 117.28,-52.59 117.28,-117.28z"/>
  </g>
 </g>
</svg>
